<svg xmlns="http://www.w3.org/2000/svg" xmlns:xlink="http://www.w3.org/1999/xlink" version="1.1" x="0px" y="0px" viewBox="0 0 100 100" style="enable-background:new 0 0 100 100;" xml:space="preserve"><path d="M73.8,26.2c-4-4-9.3-6.2-14.9-6.2s-10.9,2.2-14.9,6.2c-8.2,8.2-8.2,21.6,0,29.8c4,4,9.3,6.2,14.9,6.2s10.9-2.2,14.9-6.2  c4-4,6.2-9.3,6.2-14.9S77.8,30.1,73.8,26.2z M73,55.1c-3.7,3.7-8.7,5.8-14,5.8s-10.3-2.1-14-5.8c-7.7-7.7-7.7-20.3,0-28  c3.7-3.7,8.7-5.8,14-5.8s10.3,2.1,14,5.8c3.7,3.7,5.8,8.7,5.8,14S76.7,51.3,73,55.1z M41.4,58.6c0.2,0.2,0.2,0.6,0,0.9L21,79.8  c-0.1,0.1-0.3,0.2-0.4,0.2s-0.3-0.1-0.4-0.2c-0.2-0.2-0.2-0.6,0-0.9l20.3-20.3C40.7,58.4,41.1,58.4,41.4,58.6z"></path></svg>